Coordinates
version=1
nRows=7
nColumns=40
inDegrees=yes

Units are S.I. units (second, meters, Newtons, ...)
If the header above contains a line with 'inDegrees', this indicates whether rotational values are in degrees (yes) or radians (no).

endheader
time	pelvis_tilt	pelvis_list	pelvis_rotation	pelvis_tx	pelvis_ty	pelvis_tz	hip_flexion_r	hip_adduction_r	hip_rotation_r	knee_angle_r	ankle_angle_r	subtalar_angle_r	mtp_angle_r	hip_flexion_l	hip_adduction_l	hip_rotation_l	knee_angle_l	ankle_angle_l	subtalar_angle_l	mtp_angle_l	lumbar_extension	lumbar_bending	lumbar_rotation	sh_tx_r	sh_ty_r	sh_tz_r	sh_plane_elev_r	sh_elev_r	sh_axial_rot_r	elbow_flex_r	pro_sup_r	sh_tx_l	sh_ty_l	sh_tz_l	sh_plane_elev_l	sh_elev_l	sh_axial_rot_l	elbow_flex_l	pro_sup_l
     24.06666670	    -21.41877501	     -3.87691635	      1.42204863	      0.75431084	      0.96553806	      0.40668758	      9.04022516	     -2.21454628	    -14.80198542	      3.97849001	     -1.93698021	     -2.12171224	      0.00000000	     13.61253417	      0.90831139	      3.04965973	     11.47385093	      1.03645520	    -18.09039762	      0.00000000	     -2.54861304	    -12.77808289	     -6.93236436	      0.03963968	      0.00690924	     -0.00500214	     -7.24731477	     17.22528211	    -10.64668796	     60.50686006	     87.33767036	      0.04331440	      0.00545239	     -0.01000000	     15.45214130	     23.40868522	    -18.48372276	     49.44385205	     76.27865228
     24.08333330	    -21.43594439	     -3.89373893	      1.39439066	      0.75440856	      0.96608102	      0.40647948	      9.04896703	     -2.19478603	    -14.82220248	      3.99030359	     -1.93524619	     -2.13193015	      0.00000000	     13.61762949	      0.92012412	      3.05385944	     11.46880088	      1.04583130	    -18.09314463	      0.00000000	     -2.56684103	    -12.79276974	     -6.92754291	      0.03955331	      0.00700473	     -0.00532023	     -7.24481262	     17.22315576	    -10.64515023	     60.51070423	     87.33739727	      0.04338868	      0.00543672	     -0.01000000	     15.44881589	     23.40457011	    -18.48562073	     49.44050578	     76.27614601
     24.10000000	    -21.64808147	     -3.97304905	      1.16750950	      0.75427653	      0.96596441	      0.40691028	      9.45241379	     -2.12429397	    -15.27683515	      4.23315644	     -1.99250496	     -2.26134640	      0.00000000	     13.86428262	      0.80704681	      3.10062138	     11.54519076	      1.36420737	    -18.25437125	      0.00000000	     -2.69664096	    -13.00043258	     -6.68090261	      0.03723982	      0.00620014	     -0.00441745	     -7.05947586	     17.19274446	    -10.60125191	     60.82583077	     87.31699858	      0.04394407	      0.00769511	     -0.01000000	     15.32000164	     23.23808730	    -18.60016779	     49.44800708	     76.14524704
     24.11666670	    -21.76113661	     -4.01747108	      0.97715350	      0.75450556	      0.96644156	      0.40693852	      9.52720634	     -2.03859512	    -15.34433071	      4.09595121	     -2.00019149	     -2.23896693	      0.00000000	     13.93479764	      0.73189145	      3.10327543	     11.47762167	      1.39152800	    -18.27285592	      0.00000000	     -2.77373244	    -13.09041314	     -6.68757413	      0.03630146	      0.00606635	     -0.00531402	     -7.07035374	     17.19675339	    -10.60720635	     60.84397059	     87.31109791	      0.04334544	      0.00836238	     -0.01000000	     15.29771727	     23.22705633	    -18.61166986	     49.45518006	     76.12379257
     24.13333330	    -21.90319441	     -4.09121033	      0.80572518	      0.75539462	      0.96755802	      0.40697321	      9.59904120	     -1.91685187	    -15.44158451	      3.97249020	     -2.07592468	     -2.15452227	      0.00000000	     14.03458685	      0.60285878	      3.02302489	     11.41520190	      1.44651677	    -18.34198940	      0.00000000	     -2.85607526	    -13.23218497	     -6.69048945	      0.03408946	      0.00530479	     -0.00622698	     -7.08190400	     17.18143603	    -10.59664694	     60.86250856	     87.30467141	      0.04263340	      0.00895594	     -0.01000000	     15.25521799	     23.27498214	    -18.62887385	     49.45820407	     76.09816025
     24.15000000	    -22.32655090	     -4.15794163	      0.58013542	      0.75660476	      0.96775334	      0.40752372	     10.01266722	     -1.84636768	    -16.06418582	      3.99091819	     -1.96239427	     -0.80853009	      0.00000000	     14.52606600	      0.45366366	      2.74919585	     11.54920174	      1.45993811	    -18.45228345	      0.00000000	     -2.53001586	    -13.53951628	     -7.02298021	      0.03245497	      0.00386441	     -0.00442109	     -7.12161798	     16.63980220	    -10.23726786	     61.24138857	     87.18760781	      0.04051848	      0.00913992	     -0.01000000	     14.91717300	     23.51794229	    -18.72424712	     49.61743447	     75.66417035
     24.16666670	    -22.34398751	     -4.20378361	      0.41419948	      0.75743405	      0.96747442	      0.40903715	      9.94044260	     -1.73007509	    -16.14162422	      3.93295126	     -2.02718963	     -0.68459512	      0.00000000	     14.54926826	      0.30571293	      2.57660113	     11.64163150	      1.55780607	    -18.59703034	      0.00000000	     -2.66647822	    -13.71633040	     -7.03103404	      0.02977902	      0.00354920	     -0.00553132	     -7.16613073	     16.60683662	    -10.14700815	     61.22082323	     87.17875115	      0.03987870	      0.00982801	     -0.01000000	     14.78429130	     23.66735084	    -18.73956015	     49.54918673	     75.60918745
